<svg xmlns="http://www.w3.org/2000/svg" width="1492" height="388" viewBox="0 0 1492 388" font-family="ui-sans-serif, system-ui, sans-serif">
<rect width="100%" height="100%" fill="#0a0e14"/>
<g id="l0">
<text x="12" y="22" fill="#9aa6b4" font-size="12" font-weight="600">Level 0 — Lobby  ·  z = 0.00 m</text>
<rect x="30.0" y="250.0" width="360.0" height="108.0" fill="hsl(0 22% 24%)"/>
<rect x="102.0" y="124.0" width="180.0" height="126.0" fill="hsl(47 22% 24%)"/>
<rect x="156.0" y="52.0" width="72.0" height="72.0" fill="hsl(94 22% 24%)"/>
<rect x="174.0" y="205.0" width="36.0" height="9.0" fill="rgba(190,170,110,0.45)"/>
<rect x="237.0" y="142.0" width="27.0" height="18.0" fill="rgba(190,170,110,0.45)"/>
<line x1="30.0" y1="357.0" x2="30.0" y2="251.0" stroke="#c8d2dd" stroke-width="2.16"/>
<line x1="102.0" y1="249.0" x2="102.0" y2="214.0" stroke="#c8d2dd" stroke-width="2.16"/>
<line x1="102.0" y1="214.0" x2="102.0" y2="187.0" stroke="#7fd4e0" stroke-width="1.512"/>
<line x1="102.0" y1="187.0" x2="102.0" y2="125.0" stroke="#c8d2dd" stroke-width="2.16"/>
<line x1="228.0" y1="123.0" x2="228.0" y2="53.0" stroke="#c8d2dd" stroke-width="2.16"/>
<line x1="282.0" y1="249.0" x2="282.0" y2="187.0" stroke="#c8d2dd" stroke-width="2.16"/>
<line x1="282.0" y1="187.0" x2="282.0" y2="160.0" stroke="#7fd4e0" stroke-width="1.512"/>
<line x1="282.0" y1="160.0" x2="282.0" y2="125.0" stroke="#c8d2dd" stroke-width="2.16"/>
<line x1="390.0" y1="357.0" x2="390.0" y2="251.0" stroke="#c8d2dd" stroke-width="2.16"/>
<line x1="156.0" y1="123.0" x2="156.0" y2="53.0" stroke="#c8d2dd" stroke-width="2.16"/>
<line x1="29.0" y1="358.0" x2="391.0" y2="358.0" stroke="#c8d2dd" stroke-width="2.16"/>
<line x1="29.0" y1="250.0" x2="103.0" y2="250.0" stroke="#c8d2dd" stroke-width="2.16"/>
<line x1="283.0" y1="250.0" x2="391.0" y2="250.0" stroke="#c8d2dd" stroke-width="2.16"/>
<line x1="103.0" y1="250.0" x2="165.0" y2="250.0" stroke="#c8d2dd" stroke-width="2.16"/>
<line x1="165.0" y1="250.0" x2="192.0" y2="250.0" stroke="#7de08a" stroke-width="1.512"/>
<line x1="192.0" y1="250.0" x2="283.0" y2="250.0" stroke="#c8d2dd" stroke-width="2.16"/>
<line x1="101.0" y1="124.0" x2="157.0" y2="124.0" stroke="#c8d2dd" stroke-width="2.16"/>
<line x1="229.0" y1="124.0" x2="283.0" y2="124.0" stroke="#c8d2dd" stroke-width="2.16"/>
<line x1="157.0" y1="124.0" x2="174.0" y2="124.0" stroke="#c8d2dd" stroke-width="2.16"/>
<line x1="174.0" y1="124.0" x2="201.0" y2="124.0" stroke="#7de08a" stroke-width="1.512"/>
<line x1="201.0" y1="124.0" x2="229.0" y2="124.0" stroke="#c8d2dd" stroke-width="2.16"/>
<line x1="155.0" y1="52.0" x2="229.0" y2="52.0" stroke="#c8d2dd" stroke-width="2.16"/>
<rect x="174.0" y="61.0" width="18.0" height="54.0" fill="none" stroke="#ff9a6a" stroke-width="1.2" stroke-dasharray="4 3"/>
<rect x="129.0" y="151.0" width="9.0" height="9.0" fill="none" stroke="#e0b25c" stroke-width="1.2" stroke-dasharray="4 3"/>
<rect x="147.0" y="133.0" width="9.0" height="9.0" fill="none" stroke="#ff9a6a" stroke-width="1.2" stroke-dasharray="4 3"/>
<text x="210.0" y="304.0" fill="rgba(226,234,243,0.86)" font-size="9" font-weight="600" text-anchor="middle">Plaza</text>
<text x="192.0" y="187.0" fill="rgba(226,234,243,0.86)" font-size="9" font-weight="600" text-anchor="middle">Lobby</text>
<text x="192.0" y="88.0" fill="rgba(226,234,243,0.86)" font-size="9" font-weight="600" text-anchor="middle">Stair core 0</text>
<circle cx="196.5" cy="227.5" r="3.8" fill="#ff6b5a"/>
</g>
<g id="l1">
<text x="442" y="22" fill="#9aa6b4" font-size="12" font-weight="600">Level 1 — Offices  ·  z = 3.40 m</text>
<rect x="460.0" y="124.0" width="81.0" height="126.0" fill="hsl(0 22% 24%)"/>
<rect x="541.0" y="124.0" width="99.0" height="126.0" fill="hsl(47 22% 24%)"/>
<rect x="514.0" y="52.0" width="72.0" height="72.0" fill="hsl(94 22% 24%)"/>
<rect x="460.0" y="250.0" width="180.0" height="27.0" fill="hsl(141 22% 24%)"/>
<rect x="568.0" y="205.0" width="45.0" height="9.0" fill="rgba(190,170,110,0.45)"/>
<line x1="460.0" y1="276.0" x2="460.0" y2="251.0" stroke="#c8d2dd" stroke-width="2.16"/>
<line x1="460.0" y1="249.0" x2="460.0" y2="125.0" stroke="#c8d2dd" stroke-width="2.16"/>
<line x1="586.0" y1="123.0" x2="586.0" y2="53.0" stroke="#c8d2dd" stroke-width="2.16"/>
<line x1="640.0" y1="276.0" x2="640.0" y2="251.0" stroke="#c8d2dd" stroke-width="2.16"/>
<line x1="640.0" y1="249.0" x2="640.0" y2="125.0" stroke="#c8d2dd" stroke-width="2.16"/>
<line x1="514.0" y1="123.0" x2="514.0" y2="53.0" stroke="#c8d2dd" stroke-width="2.16"/>
<line x1="541.0" y1="249.0" x2="541.0" y2="214.0" stroke="#e39b45" stroke-width="2.16"/>
<line x1="541.0" y1="214.0" x2="541.0" y2="205.0" stroke="#7de08a" stroke-width="1.512"/>
<line x1="541.0" y1="205.0" x2="541.0" y2="125.0" stroke="#e39b45" stroke-width="2.16"/>
<line x1="459.0" y1="277.0" x2="641.0" y2="277.0" stroke="#c8d2dd" stroke-width="2.16"/>
<line x1="542.0" y1="250.0" x2="595.0" y2="250.0" stroke="#c8d2dd" stroke-width="2.16"/>
<line x1="595.0" y1="250.0" x2="613.0" y2="250.0" stroke="#7de08a" stroke-width="1.512"/>
<line x1="613.0" y1="250.0" x2="641.0" y2="250.0" stroke="#c8d2dd" stroke-width="2.16"/>
<line x1="459.0" y1="250.0" x2="487.0" y2="250.0" stroke="#c8d2dd" stroke-width="2.16"/>
<line x1="487.0" y1="250.0" x2="505.0" y2="250.0" stroke="#7de08a" stroke-width="1.512"/>
<line x1="505.0" y1="250.0" x2="542.0" y2="250.0" stroke="#c8d2dd" stroke-width="2.16"/>
<line x1="587.0" y1="124.0" x2="641.0" y2="124.0" stroke="#c8d2dd" stroke-width="2.16"/>
<line x1="542.0" y1="124.0" x2="568.0" y2="124.0" stroke="#c8d2dd" stroke-width="2.16"/>
<line x1="568.0" y1="124.0" x2="586.0" y2="124.0" stroke="#7de08a" stroke-width="1.512"/>
<line x1="586.0" y1="124.0" x2="587.0" y2="124.0" stroke="#c8d2dd" stroke-width="2.16"/>
<line x1="459.0" y1="124.0" x2="515.0" y2="124.0" stroke="#c8d2dd" stroke-width="2.16"/>
<line x1="515.0" y1="124.0" x2="523.0" y2="124.0" stroke="#c8d2dd" stroke-width="2.16"/>
<line x1="523.0" y1="124.0" x2="541.0" y2="124.0" stroke="#7de08a" stroke-width="1.512"/>
<line x1="541.0" y1="124.0" x2="542.0" y2="124.0" stroke="#c8d2dd" stroke-width="2.16"/>
<line x1="513.0" y1="52.0" x2="587.0" y2="52.0" stroke="#c8d2dd" stroke-width="2.16"/>
<rect x="532.0" y="61.0" width="18.0" height="54.0" fill="none" stroke="#ff9a6a" stroke-width="1.2" stroke-dasharray="4 3"/>
<rect x="559.0" y="61.0" width="18.0" height="54.0" fill="none" stroke="#ff9a6a" stroke-width="1.2" stroke-dasharray="4 3"/>
<rect x="487.0" y="151.0" width="9.0" height="9.0" fill="none" stroke="#e0b25c" stroke-width="1.2" stroke-dasharray="4 3"/>
<rect x="604.0" y="151.0" width="9.0" height="9.0" fill="none" stroke="#e0b25c" stroke-width="1.2" stroke-dasharray="4 3"/>
<rect x="505.0" y="133.0" width="9.0" height="9.0" fill="none" stroke="#ff9a6a" stroke-width="1.2" stroke-dasharray="4 3"/>
<text x="500.5" y="187.0" fill="rgba(226,234,243,0.86)" font-size="9" font-weight="600" text-anchor="middle">West office</text>
<text x="590.5" y="187.0" fill="rgba(226,234,243,0.86)" font-size="9" font-weight="600" text-anchor="middle">East office</text>
<text x="550.0" y="88.0" fill="rgba(226,234,243,0.86)" font-size="9" font-weight="600" text-anchor="middle">Stair core 1</text>
<text x="550.0" y="263.5" fill="rgba(226,234,243,0.86)" font-size="9" font-weight="600" text-anchor="middle">South balcony</text>
</g>
<g id="l2">
<text x="692" y="22" fill="#9aa6b4" font-size="12" font-weight="600">Level 2 — Atrium  ·  z = 6.80 m</text>
<rect x="710.0" y="124.0" width="180.0" height="126.0" fill="hsl(0 22% 24%)"/>
<rect x="764.0" y="52.0" width="72.0" height="72.0" fill="hsl(47 22% 24%)"/>
<rect x="890.0" y="142.0" width="36.0" height="90.0" fill="hsl(94 22% 24%)"/>
<rect x="773.0" y="169.0" width="45.0" height="18.0" fill="rgba(190,170,110,0.45)"/>
<line x1="710.0" y1="249.0" x2="710.0" y2="214.0" stroke="#c8d2dd" stroke-width="2.16"/>
<line x1="710.0" y1="214.0" x2="710.0" y2="187.0" stroke="#a78bfa" stroke-width="1.512"/>
<line x1="710.0" y1="187.0" x2="710.0" y2="125.0" stroke="#c8d2dd" stroke-width="2.16"/>
<line x1="836.0" y1="123.0" x2="836.0" y2="53.0" stroke="#c8d2dd" stroke-width="2.16"/>
<line x1="890.0" y1="249.0" x2="890.0" y2="233.0" stroke="#c8d2dd" stroke-width="2.16"/>
<line x1="890.0" y1="141.0" x2="890.0" y2="125.0" stroke="#c8d2dd" stroke-width="2.16"/>
<line x1="890.0" y1="231.0" x2="890.0" y2="196.0" stroke="#c8d2dd" stroke-width="2.16"/>
<line x1="890.0" y1="196.0" x2="890.0" y2="178.0" stroke="#7de08a" stroke-width="1.512"/>
<line x1="890.0" y1="178.0" x2="890.0" y2="143.0" stroke="#c8d2dd" stroke-width="2.16"/>
<line x1="926.0" y1="231.0" x2="926.0" y2="143.0" stroke="#c8d2dd" stroke-width="2.16"/>
<line x1="764.0" y1="123.0" x2="764.0" y2="53.0" stroke="#c8d2dd" stroke-width="2.16"/>
<line x1="709.0" y1="250.0" x2="764.0" y2="250.0" stroke="#c8d2dd" stroke-width="2.16"/>
<line x1="764.0" y1="250.0" x2="800.0" y2="250.0" stroke="#a78bfa" stroke-width="1.512"/>
<line x1="800.0" y1="250.0" x2="891.0" y2="250.0" stroke="#c8d2dd" stroke-width="2.16"/>
<line x1="889.0" y1="142.0" x2="927.0" y2="142.0" stroke="#c8d2dd" stroke-width="2.16"/>
<line x1="709.0" y1="124.0" x2="765.0" y2="124.0" stroke="#c8d2dd" stroke-width="2.16"/>
<line x1="837.0" y1="124.0" x2="891.0" y2="124.0" stroke="#c8d2dd" stroke-width="2.16"/>
<line x1="765.0" y1="124.0" x2="782.0" y2="124.0" stroke="#c8d2dd" stroke-width="2.16"/>
<line x1="782.0" y1="124.0" x2="809.0" y2="124.0" stroke="#7de08a" stroke-width="1.512"/>
<line x1="809.0" y1="124.0" x2="837.0" y2="124.0" stroke="#c8d2dd" stroke-width="2.16"/>
<line x1="763.0" y1="52.0" x2="837.0" y2="52.0" stroke="#c8d2dd" stroke-width="2.16"/>
<line x1="889.0" y1="232.0" x2="927.0" y2="232.0" stroke="#c8d2dd" stroke-width="2.16"/>
<rect x="809.0" y="61.0" width="18.0" height="54.0" fill="none" stroke="#ff9a6a" stroke-width="1.2" stroke-dasharray="4 3"/>
<rect x="782.0" y="61.0" width="18.0" height="54.0" fill="none" stroke="#ff9a6a" stroke-width="1.2" stroke-dasharray="4 3"/>
<rect x="728.0" y="214.0" width="144.0" height="27.0" fill="none" stroke="#ff9a6a" stroke-width="1.2" stroke-dasharray="4 3"/>
<rect x="854.0" y="151.0" width="9.0" height="9.0" fill="none" stroke="#e0b25c" stroke-width="1.2" stroke-dasharray="4 3"/>
<rect x="737.0" y="187.0" width="18.0" height="18.0" fill="none" stroke="#e0b25c" stroke-width="1.2" stroke-dasharray="4 3"/>
<text x="800.0" y="187.0" fill="rgba(226,234,243,0.86)" font-size="9" font-weight="600" text-anchor="middle">Atrium</text>
<text x="800.0" y="88.0" fill="rgba(226,234,243,0.86)" font-size="9" font-weight="600" text-anchor="middle">Stair core 2</text>
<text x="908.0" y="187.0" fill="rgba(226,234,243,0.86)" font-size="9" font-weight="600" text-anchor="middle">East balcony</text>
<circle cx="858.5" cy="209.5" r="3.8" fill="#62a8ff"/>
</g>
<g id="l3">
<text x="978" y="22" fill="#9aa6b4" font-size="12" font-weight="600">Level 3 — Ramp deck  ·  z = 10.20 m</text>
<rect x="1032.0" y="124.0" width="180.0" height="126.0" fill="hsl(0 22% 24%)"/>
<rect x="1086.0" y="52.0" width="72.0" height="72.0" fill="hsl(47 22% 24%)"/>
<rect x="996.0" y="142.0" width="36.0" height="90.0" fill="hsl(94 22% 24%)"/>
<rect x="1140.0" y="142.0" width="27.0" height="27.0" fill="rgba(190,170,110,0.45)"/>
<line x1="996.0" y1="231.0" x2="996.0" y2="143.0" stroke="#c8d2dd" stroke-width="2.16"/>
<line x1="1032.0" y1="249.0" x2="1032.0" y2="233.0" stroke="#c8d2dd" stroke-width="2.16"/>
<line x1="1032.0" y1="141.0" x2="1032.0" y2="125.0" stroke="#c8d2dd" stroke-width="2.16"/>
<line x1="1032.0" y1="231.0" x2="1032.0" y2="196.0" stroke="#c8d2dd" stroke-width="2.16"/>
<line x1="1032.0" y1="196.0" x2="1032.0" y2="178.0" stroke="#7de08a" stroke-width="1.512"/>
<line x1="1032.0" y1="178.0" x2="1032.0" y2="143.0" stroke="#c8d2dd" stroke-width="2.16"/>
<line x1="1158.0" y1="123.0" x2="1158.0" y2="53.0" stroke="#c8d2dd" stroke-width="2.16"/>
<line x1="1212.0" y1="249.0" x2="1212.0" y2="187.0" stroke="#c8d2dd" stroke-width="2.16"/>
<line x1="1212.0" y1="187.0" x2="1212.0" y2="160.0" stroke="#a78bfa" stroke-width="1.512"/>
<line x1="1212.0" y1="160.0" x2="1212.0" y2="125.0" stroke="#c8d2dd" stroke-width="2.16"/>
<line x1="1086.0" y1="123.0" x2="1086.0" y2="53.0" stroke="#c8d2dd" stroke-width="2.16"/>
<line x1="1031.0" y1="250.0" x2="1213.0" y2="250.0" stroke="#c8d2dd" stroke-width="2.16"/>
<line x1="995.0" y1="142.0" x2="1033.0" y2="142.0" stroke="#c8d2dd" stroke-width="2.16"/>
<line x1="1031.0" y1="124.0" x2="1087.0" y2="124.0" stroke="#c8d2dd" stroke-width="2.16"/>
<line x1="1159.0" y1="124.0" x2="1213.0" y2="124.0" stroke="#c8d2dd" stroke-width="2.16"/>
<line x1="1087.0" y1="124.0" x2="1104.0" y2="124.0" stroke="#c8d2dd" stroke-width="2.16"/>
<line x1="1104.0" y1="124.0" x2="1131.0" y2="124.0" stroke="#7de08a" stroke-width="1.512"/>
<line x1="1131.0" y1="124.0" x2="1159.0" y2="124.0" stroke="#c8d2dd" stroke-width="2.16"/>
<line x1="1085.0" y1="52.0" x2="1159.0" y2="52.0" stroke="#c8d2dd" stroke-width="2.16"/>
<line x1="995.0" y1="232.0" x2="1033.0" y2="232.0" stroke="#c8d2dd" stroke-width="2.16"/>
<rect x="1104.0" y="61.0" width="18.0" height="54.0" fill="none" stroke="#ff9a6a" stroke-width="1.2" stroke-dasharray="4 3"/>
<rect x="1131.0" y="61.0" width="18.0" height="54.0" fill="none" stroke="#ff9a6a" stroke-width="1.2" stroke-dasharray="4 3"/>
<rect x="1050.0" y="214.0" width="144.0" height="27.0" fill="none" stroke="#ff9a6a" stroke-width="1.2" stroke-dasharray="4 3"/>
<rect x="1059.0" y="187.0" width="18.0" height="18.0" fill="none" stroke="#e0b25c" stroke-width="1.2" stroke-dasharray="4 3"/>
<rect x="1185.0" y="142.0" width="9.0" height="9.0" fill="none" stroke="#e0b25c" stroke-width="1.2" stroke-dasharray="4 3"/>
<rect x="1167.0" y="133.0" width="9.0" height="9.0" fill="none" stroke="#ff9a6a" stroke-width="1.2" stroke-dasharray="4 3"/>
<text x="1122.0" y="187.0" fill="rgba(226,234,243,0.86)" font-size="9" font-weight="600" text-anchor="middle">Ramp deck</text>
<text x="1122.0" y="88.0" fill="rgba(226,234,243,0.86)" font-size="9" font-weight="600" text-anchor="middle">Stair core 3</text>
<text x="1014.0" y="187.0" fill="rgba(226,234,243,0.86)" font-size="9" font-weight="600" text-anchor="middle">West balcony</text>
<circle cx="1018.5" cy="191.5" r="3.8" fill="#a78bfa"/>
<circle cx="1189.5" cy="227.5" r="3.8" fill="#a78bfa"/>
</g>
<g id="roof">
<text x="1264" y="22" fill="#9aa6b4" font-size="12" font-weight="600">Roof deck  ·  z = 13.60 m</text>
<rect x="1282.0" y="124.0" width="180.0" height="126.0" fill="hsl(0 22% 24%)"/>
<rect x="1336.0" y="52.0" width="72.0" height="72.0" fill="hsl(47 22% 24%)"/>
<rect x="1309.0" y="196.0" width="36.0" height="27.0" fill="rgba(190,170,110,0.45)"/>
<line x1="1282.0" y1="249.0" x2="1282.0" y2="125.0" stroke="#c8d2dd" stroke-width="2.16"/>
<line x1="1408.0" y1="123.0" x2="1408.0" y2="53.0" stroke="#c8d2dd" stroke-width="2.16"/>
<line x1="1462.0" y1="249.0" x2="1462.0" y2="125.0" stroke="#c8d2dd" stroke-width="2.16"/>
<line x1="1336.0" y1="123.0" x2="1336.0" y2="53.0" stroke="#c8d2dd" stroke-width="2.16"/>
<line x1="1281.0" y1="250.0" x2="1463.0" y2="250.0" stroke="#c8d2dd" stroke-width="2.16"/>
<line x1="1281.0" y1="124.0" x2="1337.0" y2="124.0" stroke="#c8d2dd" stroke-width="2.16"/>
<line x1="1409.0" y1="124.0" x2="1463.0" y2="124.0" stroke="#c8d2dd" stroke-width="2.16"/>
<line x1="1337.0" y1="124.0" x2="1354.0" y2="124.0" stroke="#c8d2dd" stroke-width="2.16"/>
<line x1="1354.0" y1="124.0" x2="1381.0" y2="124.0" stroke="#7de08a" stroke-width="1.512"/>
<line x1="1381.0" y1="124.0" x2="1409.0" y2="124.0" stroke="#c8d2dd" stroke-width="2.16"/>
<line x1="1335.0" y1="52.0" x2="1409.0" y2="52.0" stroke="#c8d2dd" stroke-width="2.16"/>
<rect x="1381.0" y="61.0" width="18.0" height="54.0" fill="none" stroke="#ff9a6a" stroke-width="1.2" stroke-dasharray="4 3"/>
<rect x="1435.0" y="142.0" width="9.0" height="9.0" fill="none" stroke="#e0b25c" stroke-width="1.2" stroke-dasharray="4 3"/>
<rect x="1417.0" y="133.0" width="9.0" height="9.0" fill="none" stroke="#ff9a6a" stroke-width="1.2" stroke-dasharray="4 3"/>
<text x="1372.0" y="187.0" fill="rgba(226,234,243,0.86)" font-size="9" font-weight="600" text-anchor="middle">Roof deck</text>
<text x="1372.0" y="88.0" fill="rgba(226,234,243,0.86)" font-size="9" font-weight="600" text-anchor="middle">Stair head</text>
<circle cx="1376.5" cy="182.5" r="3.8" fill="#ffd75e"/>
</g>
</svg>