<svg xmlns="http://www.w3.org/2000/svg" width="472" height="208" viewBox="0 0 472 208" font-family="ui-sans-serif, system-ui, sans-serif">
<rect width="100%" height="100%" fill="#0a0e14"/>
<g id="ground">
<text x="12" y="22" fill="#9aa6b4" font-size="12" font-weight="600">Ground floor  ·  z = 0.00 m</text>
<rect x="30.0" y="106.0" width="90.0" height="72.0" fill="hsl(0 22% 24%)"/>
<rect x="138.0" y="106.0" width="72.0" height="72.0" fill="hsl(47 22% 24%)"/>
<rect x="30.0" y="52.0" width="90.0" height="54.0" fill="hsl(94 22% 24%)"/>
<rect x="228.0" y="106.0" width="72.0" height="72.0" fill="hsl(141 22% 24%)"/>
<rect x="300.0" y="88.0" width="36.0" height="72.0" fill="hsl(188 22% 24%)"/>
<rect x="264.0" y="88.0" width="36.0" height="18.0" fill="hsl(188 22% 24%)"/>
<rect x="138.0" y="52.0" width="36.0" height="54.0" fill="hsl(235 22% 24%)"/>
<rect x="111.0" y="133.0" width="18.0" height="27.0" fill="rgba(190,170,110,0.45)"/>
<line x1="30.0" y1="177.0" x2="30.0" y2="107.0" stroke="#c8d2dd" stroke-width="2.16"/>
<line x1="30.0" y1="105.0" x2="30.0" y2="53.0" stroke="#c8d2dd" stroke-width="2.16"/>
<line x1="120.0" y1="177.0" x2="120.0" y2="107.0" stroke="#c8d2dd" stroke-width="2.16"/>
<line x1="120.0" y1="105.0" x2="120.0" y2="53.0" stroke="#c8d2dd" stroke-width="2.16"/>
<line x1="138.0" y1="177.0" x2="138.0" y2="107.0" stroke="#c8d2dd" stroke-width="2.16"/>
<line x1="138.0" y1="105.0" x2="138.0" y2="53.0" stroke="#c8d2dd" stroke-width="2.16"/>
<line x1="174.0" y1="105.0" x2="174.0" y2="53.0" stroke="#c8d2dd" stroke-width="2.16"/>
<line x1="210.0" y1="177.0" x2="210.0" y2="107.0" stroke="#c8d2dd" stroke-width="2.16"/>
<line x1="228.0" y1="177.0" x2="228.0" y2="107.0" stroke="#c8d2dd" stroke-width="2.16"/>
<line x1="264.0" y1="105.0" x2="264.0" y2="89.0" stroke="#c8d2dd" stroke-width="2.16"/>
<line x1="300.0" y1="177.0" x2="300.0" y2="161.0" stroke="#c8d2dd" stroke-width="2.16"/>
<line x1="300.0" y1="159.0" x2="300.0" y2="107.0" stroke="#c8d2dd" stroke-width="2.16"/>
<line x1="336.0" y1="159.0" x2="336.0" y2="89.0" stroke="#c8d2dd" stroke-width="2.16"/>
<line x1="137.0" y1="178.0" x2="211.0" y2="178.0" stroke="#c8d2dd" stroke-width="2.16"/>
<line x1="29.0" y1="178.0" x2="57.0" y2="178.0" stroke="#c8d2dd" stroke-width="2.16"/>
<line x1="57.0" y1="178.0" x2="75.0" y2="178.0" stroke="#7de08a" stroke-width="1.512"/>
<line x1="75.0" y1="178.0" x2="121.0" y2="178.0" stroke="#c8d2dd" stroke-width="2.16"/>
<line x1="227.0" y1="178.0" x2="301.0" y2="178.0" stroke="#c8d2dd" stroke-width="2.16"/>
<line x1="263.0" y1="88.0" x2="337.0" y2="88.0" stroke="#c8d2dd" stroke-width="2.16"/>
<line x1="29.0" y1="52.0" x2="121.0" y2="52.0" stroke="#c8d2dd" stroke-width="2.16"/>
<line x1="137.0" y1="52.0" x2="175.0" y2="52.0" stroke="#c8d2dd" stroke-width="2.16"/>
<line x1="299.0" y1="160.0" x2="337.0" y2="160.0" stroke="#c8d2dd" stroke-width="2.16"/>
<line x1="175.0" y1="106.0" x2="211.0" y2="106.0" stroke="#c8d2dd" stroke-width="2.16"/>
<line x1="137.0" y1="106.0" x2="156.0" y2="106.0" stroke="#c8d2dd" stroke-width="2.16"/>
<line x1="156.0" y1="106.0" x2="165.0" y2="106.0" stroke="#7de08a" stroke-width="1.512"/>
<line x1="165.0" y1="106.0" x2="175.0" y2="106.0" stroke="#c8d2dd" stroke-width="2.16"/>
<line x1="29.0" y1="106.0" x2="121.0" y2="106.0" stroke="#c8d2dd" stroke-width="2.16"/>
<line x1="227.0" y1="106.0" x2="265.0" y2="106.0" stroke="#c8d2dd" stroke-width="2.16"/>
<line x1="265.0" y1="106.0" x2="301.0" y2="106.0" stroke="#c8d2dd" stroke-width="2.16"/>
<rect x="147.0" y="79.0" width="9.0" height="9.0" fill="none" stroke="#ff9a6a" stroke-width="1.2" stroke-dasharray="4 3"/>
<text x="75.0" y="142.0" fill="rgba(226,234,243,0.86)" font-size="9" font-weight="600" text-anchor="middle">Hall</text>
<text x="174.0" y="142.0" fill="rgba(226,234,243,0.86)" font-size="9" font-weight="600" text-anchor="middle">Annex</text>
<text x="75.0" y="79.0" fill="rgba(226,234,243,0.86)" font-size="9" font-weight="600" text-anchor="middle">Sealed room</text>
<text x="264.0" y="142.0" fill="rgba(226,234,243,0.86)" font-size="9" font-weight="600" text-anchor="middle">Overlap A</text>
<text x="310.8" y="118.6" fill="rgba(226,234,243,0.86)" font-size="9" font-weight="600" text-anchor="middle">Overlap B</text>
<text x="156.0" y="79.0" fill="rgba(226,234,243,0.86)" font-size="9" font-weight="600" text-anchor="middle">Stair closet</text>
<circle cx="52.5" cy="155.5" r="3.8" fill="#ff6b5a"/>
<circle cx="187.5" cy="137.5" r="3.8" fill="#ffd75e"/>
<circle cx="70.5" cy="74.5" r="3.8" fill="#a78bfa"/>
</g>
<g id="upper">
<text x="388" y="22" fill="#9aa6b4" font-size="12" font-weight="600">First floor  ·  z = 3.40 m</text>
<rect x="406.0" y="52.0" width="36.0" height="54.0" fill="hsl(0 22% 24%)"/>
<line x1="406.0" y1="105.0" x2="406.0" y2="53.0" stroke="#c8d2dd" stroke-width="2.16"/>
<line x1="442.0" y1="105.0" x2="442.0" y2="53.0" stroke="#c8d2dd" stroke-width="2.16"/>
<line x1="405.0" y1="52.0" x2="443.0" y2="52.0" stroke="#c8d2dd" stroke-width="2.16"/>
<line x1="405.0" y1="106.0" x2="443.0" y2="106.0" stroke="#c8d2dd" stroke-width="2.16"/>
<rect x="415.0" y="79.0" width="9.0" height="9.0" fill="none" stroke="#ff9a6a" stroke-width="1.2" stroke-dasharray="4 3"/>
<text x="424.0" y="79.0" fill="rgba(226,234,243,0.86)" font-size="9" font-weight="600" text-anchor="middle">Attic</text>
</g>
</svg>